<svg width="24" height="24" viewBox="0 0 24 24" fill="none" xmlns="http://www.w3.org/2000/svg">
<path d="M7.04 14.5L6.30712 14.6594L6.30786 14.6627L7.04 14.5ZM5.52 7.51L6.25287 7.35063L6.25261 7.34943L5.52 7.51ZM21.1 7.51L20.3679 7.3473L20.3671 7.35063L21.1 7.51ZM19.58 14.5L18.8471 14.3406L18.8451 14.3503L19.58 14.5ZM2.75 2C2.33579 2 2 2.33579 2 2.75C2 3.16421 2.33579 3.5 2.75 3.5V2ZM4.71 3.66L3.97563 3.81242L3.97665 3.81715L4.71 3.66ZM4.90665 8.15715C4.99344 8.56217 5.39213 8.82014 5.79715 8.73335C6.20217 8.64656 6.46014 8.24787 6.37335 7.84285L4.90665 8.15715ZM17.35 16.17C17.7642 16.17 18.1 15.8342 18.1 15.42C18.1 15.0058 17.7642 14.67 17.35 14.67V16.17ZM19.43 19.17C19.8442 19.17 20.18 18.8342 20.18 18.42C20.18 18.0058 19.8442 17.67 19.43 17.67V19.17ZM9.49 20.08C9.49 20.318 9.30038 20.5 9.08 20.5V22C10.1409 22 10.99 21.1343 10.99 20.08H9.49ZM9.08 20.5C8.85962 20.5 8.67 20.318 8.67 20.08H7.17C7.17 21.1343 8.01908 22 9.08 22V20.5ZM8.67 20.08C8.67 19.842 8.85962 19.66 9.08 19.66V18.16C8.01908 18.16 7.17 19.0257 7.17 20.08H8.67ZM9.08 19.66C9.30038 19.66 9.49 19.842 9.49 20.08H10.99C10.99 19.0257 10.1409 18.16 9.08 18.16V19.66ZM17.36 20.08C17.36 20.318 17.1704 20.5 16.95 20.5V22C18.0109 22 18.86 21.1343 18.86 20.08H17.36ZM16.95 20.5C16.7296 20.5 16.54 20.318 16.54 20.08H15.04C15.04 21.1343 15.8891 22 16.95 22V20.5ZM16.54 20.08C16.54 19.842 16.7296 19.66 16.95 19.66V18.16C15.8891 18.16 15.04 19.0257 15.04 20.08H16.54ZM16.95 19.66C17.1704 19.66 17.36 19.842 17.36 20.08H18.86C18.86 19.0257 18.0109 18.16 16.95 18.16V19.66ZM18.45 14.67H8.17V16.17H18.45V14.67ZM8.17 14.67C7.98951 14.67 7.81763 14.542 7.77214 14.3373L6.30786 14.6627C6.50237 15.538 7.27049 16.17 8.17 16.17V14.67ZM7.77287 14.3406L6.25287 7.35063L4.78713 7.66937L6.30713 14.6594L7.77287 14.3406ZM6.25261 7.34943C6.19499 7.08655 6.38963 6.85 6.65 6.85V5.35C5.43037 5.35 4.52501 6.47345 4.78739 7.67057L6.25261 7.34943ZM6.65 6.85H19.97V5.35H6.65V6.85ZM19.97 6.85C20.2281 6.85 20.4242 7.09362 20.3679 7.3473L21.8321 7.6727C22.0958 6.48638 21.1919 5.35 19.97 5.35V6.85ZM20.3671 7.35063L18.8471 14.3406L20.3129 14.6594L21.8329 7.66937L20.3671 7.35063ZM18.8451 14.3503C18.8069 14.5377 18.6469 14.67 18.45 14.67V16.17C19.3531 16.17 20.1331 15.5423 20.3149 14.6497L18.8451 14.3503ZM2.75 3.5H3.58V2H2.75V3.5ZM3.58 3.5C3.7804 3.5 3.93907 3.63618 3.97565 3.81241L5.44435 3.50759C5.26093 2.62382 4.4796 2 3.58 2V3.5ZM3.97665 3.81715L4.90665 8.15715L6.37335 7.84285L5.44335 3.50285L3.97665 3.81715ZM17.35 14.67H6.92V16.17H17.35V14.67ZM6.92 14.67C5.67579 14.67 4.67 15.6758 4.67 16.92H6.17C6.17 16.5042 6.50421 16.17 6.92 16.17V14.67ZM4.67 16.92C4.67 18.1642 5.67579 19.17 6.92 19.17V17.67C6.50421 17.67 6.17 17.3358 6.17 16.92H4.67ZM6.92 19.17H19.43V17.67H6.92V19.17Z" fill="#0C73FE"/>
</svg>
