<svg width="18" height="18" viewBox="0 0 18 18" fill="none" xmlns="http://www.w3.org/2000/svg">
<path d="M9 15.9375C5.1675 15.9375 2.0625 12.8325 2.0625 9C2.0625 5.1675 5.1675 2.0625 9 2.0625C12.8325 2.0625 15.9375 5.1675 15.9375 9C15.9375 12.8325 12.8325 15.9375 9 15.9375Z" stroke="#F5C933" stroke-linecap="round" stroke-linejoin="round"/>
<path d="M7.125 7C6.84886 7 6.625 7.22386 6.625 7.5C6.625 7.77614 6.84886 8 7.125 8V7ZM10.875 8C11.1511 8 11.375 7.77614 11.375 7.5C11.375 7.22386 11.1511 7 10.875 7V8ZM7.125 8H10.875V7H7.125V8Z" fill="#F5C933"/>
<path d="M6.375 10C6.09886 10 5.875 10.2239 5.875 10.5C5.875 10.7761 6.09886 11 6.375 11V10ZM11.625 11C11.9011 11 12.125 10.7761 12.125 10.5C12.125 10.2239 11.9011 10 11.625 10V11ZM6.375 11H11.625V10H6.375V11Z" fill="#F5C933"/>
</svg>
