<svg width="40" height="44" viewBox="0 0 40 44" fill="none" xmlns="http://www.w3.org/2000/svg">
<path d="M25.19 14.85H27.25" stroke="#0C73FE" stroke-width="1.5" stroke-linecap="round" stroke-linejoin="round"/>
<path d="M8.75 14.85H21.08" stroke="#0C73FE" stroke-width="1.5" stroke-linecap="round" stroke-linejoin="round"/>
<path d="M23.14 16.89C24.2777 16.89 25.2 15.9767 25.2 14.85C25.2 13.7233 24.2777 12.81 23.14 12.81C22.0023 12.81 21.08 13.7233 21.08 14.85C21.08 15.9767 22.0023 16.89 23.14 16.89Z" stroke="#0C73FE" stroke-width="1.5" stroke-linecap="round" stroke-linejoin="round"/>
<path d="M25.19 29.15H27.25" stroke="#0C73FE" stroke-width="1.5" stroke-linecap="round" stroke-linejoin="round"/>
<path d="M8.75 29.15H21.08" stroke="#0C73FE" stroke-width="1.5" stroke-linecap="round" stroke-linejoin="round"/>
<path d="M23.14 31.19C24.2777 31.19 25.2 30.2766 25.2 29.15C25.2 28.0233 24.2777 27.11 23.14 27.11C22.0023 27.11 21.08 28.0233 21.08 29.15C21.08 30.2766 22.0023 31.19 23.14 31.19Z" stroke="#0C73FE" stroke-width="1.5" stroke-linecap="round" stroke-linejoin="round"/>
<path d="M14.92 22H27.25" stroke="#0C73FE" stroke-width="1.5" stroke-linecap="round" stroke-linejoin="round"/>
<path d="M8.75 22H10.81" stroke="#0C73FE" stroke-width="1.5" stroke-linecap="round" stroke-linejoin="round"/>
<path d="M12.86 24.04C13.9977 24.04 14.92 23.1267 14.92 22C14.92 20.8733 13.9977 19.96 12.86 19.96C11.7223 19.96 10.8 20.8733 10.8 22C10.8 23.1267 11.7223 24.04 12.86 24.04Z" stroke="#0C73FE" stroke-width="1.5" stroke-linecap="round" stroke-linejoin="round"/>
</svg>
