<svg width="16" height="16" viewBox="0 0 16 16" fill="none" xmlns="http://www.w3.org/2000/svg">
<path d="M7.99999 1.83334C5.53999 1.83334 3.53333 3.84001 3.53333 6.30001C3.53333 9.35334 7.53332 13.8467 7.69999 14.0333C7.85999 14.2133 8.13999 14.2133 8.29999 14.0333C8.47332 13.8467 12.4667 9.35334 12.4667 6.30001C12.4667 3.84001 10.46 1.83334 7.99999 1.83334Z" stroke="#131313" stroke-opacity="0.8" stroke-linecap="round" stroke-linejoin="round"/>
<path d="M8.24887 7.86023C9.11066 7.72306 9.69808 6.91324 9.5609 6.05145C9.42373 5.18966 8.61391 4.60224 7.75212 4.73942C6.89033 4.87659 6.30291 5.68641 6.44009 6.5482C6.57726 7.40999 7.38708 7.99741 8.24887 7.86023Z" stroke="#131313" stroke-opacity="0.8" stroke-linecap="round" stroke-linejoin="round"/>
</svg>
