<svg width="56" height="56" viewBox="0 0 56 56" fill="none" xmlns="http://www.w3.org/2000/svg">
<g filter="url(#filter0_d_25_1409)">
<path d="M35.9999 25L19.9999 25" stroke="#0C73FE" stroke-width="1.5" stroke-linecap="round" stroke-linejoin="round"/>
<path d="M12.5521 45.6921L11.8711 47.0286L12.5521 45.6921ZM48.6921 40.4479L47.3556 39.7669L48.6921 40.4479ZM43.4479 45.6921L42.7669 44.3556L43.4479 45.6921ZM43.4479 4.30792L42.7669 5.64443L43.4479 4.30792ZM48.6921 9.55211L50.0286 8.87113L48.6921 9.55211ZM25.2 4.5H30.8V1.5H25.2V4.5ZM48.5 22.2V27.8H51.5V22.2H48.5ZM30.8 45.5H25.2V48.5H30.8V45.5ZM7.5 27.8V22.2H4.5V27.8H7.5ZM25.2 45.5C21.8149 45.5 19.3663 45.4988 17.4406 45.3415C15.5323 45.1856 14.2699 44.8838 13.2331 44.3556L11.8711 47.0286C13.4013 47.8083 15.1025 48.1605 17.1963 48.3315C19.2726 48.5012 21.8644 48.5 25.2 48.5V45.5ZM4.5 27.8C4.5 31.1356 4.49883 33.7274 4.66847 35.8037C4.83954 37.8975 5.19175 39.5987 5.97141 41.1289L8.64443 39.7669C8.11617 38.7301 7.81442 37.4677 7.65851 35.5594C7.50117 33.6337 7.5 31.1851 7.5 27.8H4.5ZM13.2331 44.3556C11.2574 43.3489 9.6511 41.7426 8.64443 39.7669L5.97141 41.1289C7.2657 43.6691 9.33094 45.7343 11.8711 47.0286L13.2331 44.3556ZM48.5 27.8C48.5 31.1851 48.4988 33.6337 48.3415 35.5594C48.1856 37.4677 47.8838 38.7301 47.3556 39.7669L50.0286 41.1289C50.8083 39.5987 51.1605 37.8975 51.3315 35.8037C51.5012 33.7274 51.5 31.1356 51.5 27.8H48.5ZM30.8 48.5C34.1356 48.5 36.7274 48.5012 38.8037 48.3315C40.8975 48.1605 42.5987 47.8083 44.1289 47.0286L42.7669 44.3556C41.7301 44.8838 40.4677 45.1856 38.5594 45.3415C36.6337 45.4988 34.1851 45.5 30.8 45.5V48.5ZM47.3556 39.7669C46.3489 41.7426 44.7426 43.3489 42.7669 44.3556L44.1289 47.0286C46.6691 45.7343 48.7343 43.6691 50.0286 41.1289L47.3556 39.7669ZM30.8 4.5C34.1851 4.5 36.6337 4.50117 38.5594 4.65851C40.4677 4.81442 41.7301 5.11617 42.7669 5.64443L44.1289 2.97141C42.5987 2.19175 40.8975 1.83954 38.8037 1.66847C36.7274 1.49883 34.1356 1.5 30.8 1.5V4.5ZM51.5 22.2C51.5 18.8644 51.5012 16.2726 51.3315 14.1963C51.1605 12.1025 50.8083 10.4013 50.0286 8.87113L47.3556 10.2331C47.8838 11.2699 48.1856 12.5323 48.3415 14.4406C48.4988 16.3663 48.5 18.8149 48.5 22.2H51.5ZM42.7669 5.64443C44.7426 6.6511 46.3489 8.2574 47.3556 10.2331L50.0286 8.87113C48.7343 6.33094 46.6691 4.2657 44.1289 2.97141L42.7669 5.64443ZM25.2 1.5C21.8644 1.5 19.2726 1.49883 17.1963 1.66847C15.1025 1.83954 13.4013 2.19175 11.8711 2.97141L13.2331 5.64443C14.2699 5.11617 15.5323 4.81442 17.4406 4.65851C19.3663 4.50117 21.8149 4.5 25.2 4.5V1.5ZM7.5 22.2C7.5 18.8149 7.50117 16.3663 7.65851 14.4406C7.81442 12.5323 8.11617 11.2699 8.64443 10.2331L5.97141 8.87113C5.19175 10.4013 4.83954 12.1025 4.66847 14.1963C4.49883 16.2726 4.5 18.8644 4.5 22.2H7.5ZM11.8711 2.97141C9.33094 4.2657 7.2657 6.33094 5.97141 8.87113L8.64443 10.2331C9.6511 8.2574 11.2574 6.6511 13.2331 5.64443L11.8711 2.97141Z" fill="#0C73FE"/>
</g>
<defs>
<filter id="filter0_d_25_1409" x="0" y="0" width="56" height="56" filterUnits="userSpaceOnUse" color-interpolation-filters="sRGB">
<feFlood flood-opacity="0" result="BackgroundImageFix"/>
<feColorMatrix in="SourceAlpha" type="matrix" values="0 0 0 0 0 0 0 0 0 0 0 0 0 0 0 0 0 0 127 0" result="hardAlpha"/>
<feOffset dy="3"/>
<feGaussianBlur stdDeviation="3"/>
<feComposite in2="hardAlpha" operator="out"/>
<feColorMatrix type="matrix" values="0 0 0 0 0.0745098 0 0 0 0 0.0745098 0 0 0 0 0.0745098 0 0 0 0.03 0"/>
<feBlend mode="normal" in2="BackgroundImageFix" result="effect1_dropShadow_25_1409"/>
<feBlend mode="normal" in="SourceGraphic" in2="effect1_dropShadow_25_1409" result="shape"/>
</filter>
</defs>
</svg>
