<svg width="56" height="56" viewBox="0 0 56 56" fill="none" xmlns="http://www.w3.org/2000/svg">
<g filter="url(#filter0_d_25_1415)">
<path d="M6 22.2C6 15.4794 6 12.1191 7.30792 9.55211C8.4584 7.29417 10.2942 5.4584 12.5521 4.30792C15.1191 3 18.4794 3 25.2 3H30.8C37.5206 3 40.8809 3 43.4479 4.30792C45.7058 5.4584 47.5416 7.29417 48.6921 9.55211C50 12.1191 50 15.4794 50 22.2V27.8C50 34.5206 50 37.8809 48.6921 40.4479C47.5416 42.7058 45.7058 44.5416 43.4479 45.6921C40.8809 47 37.5206 47 30.8 47H25.2C18.4794 47 15.1191 47 12.5521 45.6921C10.2942 44.5416 8.4584 42.7058 7.30792 40.4479C6 37.8809 6 34.5206 6 27.8V22.2Z" fill="#0C73FE"/>
<path d="M36 25L20 25M28 17V33" stroke="white" stroke-width="1.5" stroke-linecap="round" stroke-linejoin="round"/>
</g>
<defs>
<filter id="filter0_d_25_1415" x="0" y="0" width="56" height="56" filterUnits="userSpaceOnUse" color-interpolation-filters="sRGB">
<feFlood flood-opacity="0" result="BackgroundImageFix"/>
<feColorMatrix in="SourceAlpha" type="matrix" values="0 0 0 0 0 0 0 0 0 0 0 0 0 0 0 0 0 0 127 0" result="hardAlpha"/>
<feOffset dy="3"/>
<feGaussianBlur stdDeviation="3"/>
<feComposite in2="hardAlpha" operator="out"/>
<feColorMatrix type="matrix" values="0 0 0 0 0.0745098 0 0 0 0 0.0745098 0 0 0 0 0.0745098 0 0 0 0.03 0"/>
<feBlend mode="normal" in2="BackgroundImageFix" result="effect1_dropShadow_25_1415"/>
<feBlend mode="normal" in="SourceGraphic" in2="effect1_dropShadow_25_1415" result="shape"/>
</filter>
</defs>
</svg>
