<svg width="19" height="18" viewBox="0 0 19 18" fill="none" xmlns="http://www.w3.org/2000/svg">
<path d="M0.5 9C0.5 13.9706 4.52944 18 9.5 18C14.4706 18 18.5 13.9706 18.5 9C18.5 4.02944 14.4706 0 9.5 0C4.52944 0 0.5 4.02944 0.5 9Z" fill="#131313" fill-opacity="0.4"/>
<path d="M13.0343 6.48138C13.325 6.18632 13.3214 5.71146 13.0264 5.42075C12.7313 5.13005 12.2564 5.13358 11.9657 5.42865L13.0343 6.48138ZM5.96574 11.5186C5.67503 11.8137 5.67857 12.2886 5.97363 12.5793C6.2687 12.87 6.74356 12.8664 7.03426 12.5714L5.96574 11.5186ZM7.03426 5.42865C6.74356 5.13358 6.2687 5.13005 5.97363 5.42075C5.67857 5.71146 5.67503 6.18632 5.96574 6.48138L7.03426 5.42865ZM11.9657 12.5714C12.2564 12.8664 12.7313 12.87 13.0264 12.5793C13.3214 12.2886 13.325 11.8137 13.0343 11.5186L11.9657 12.5714ZM11.9657 5.42865L5.96574 11.5186L7.03426 12.5714L13.0343 6.48138L11.9657 5.42865ZM5.96574 6.48138L11.9657 12.5714L13.0343 11.5186L7.03426 5.42865L5.96574 6.48138Z" fill="white"/>
</svg>
